# xmcd
#
# Track frame offsets:
#	150
#	23293
#	37592
#	60390
#	81657
#	99544
#	114538
#	142695
#	162675
#	190106
#	209702
#
# Disc length: 3286 seconds
#
# Revision: 1
# Processed by: cddbd v1.5.2PL0 Copyright (c) Steve Scherf et al.
# Submitted via: audiograbber 1.83.01
#
DISCID=8a0cd40b
DTITLE=Abstract Rapture - Democadencia
DYEAR=2008
DGENRE=Metal
TTITLE0=Democadencia
TTITLE1=Noxious Utopia
TTITLE2=The Void
TTITLE3=Primal Sin Crisis
TTITLE4=Rejections
TTITLE5=Fracture
TTITLE6=Poisoned Love
TTITLE7=From Dust To Nowhere
TTITLE8=Carpe Noctem
TTITLE9=Mental Driftwood
TTITLE10=Observations In A Mirror (Through The Eyes Of An Alcoholic)
EXTD=
EXTT0=
EXTT1=
EXTT2=
EXTT3=
EXTT4=
EXTT5=
EXTT6=
EXTT7=
EXTT8=
EXTT9=
EXTT10=
PLAYORDER=
